<svg width="250" height="249" viewBox="0 0 250 249" fill="none" xmlns="http://www.w3.org/2000/svg">
<path d="M119.461 1.80364C116.798 2.65601 113.495 3.93456 112.003 4.57384C107.954 6.27858 105.824 7.13095 97.0868 10.2208C92.7184 11.819 88.1369 13.4172 86.9649 13.9499C85.7928 14.3761 83.1292 15.335 81.1048 16.0808C79.0804 16.8267 76.4168 17.7856 75.2448 18.2118C74.0728 18.638 69.4913 20.3427 65.1229 21.9409C60.7545 23.4325 56.173 25.1373 55.001 25.67C53.8289 26.2027 49.2475 27.8009 44.8791 29.3991C40.5107 30.9973 35.9292 32.5955 34.7572 33.1283C29.0037 35.6854 11.7432 41.652 10.358 41.652C9.50568 41.652 8.44021 42.0782 8.12058 42.7174C7.80094 43.2502 6.62893 43.7829 5.56346 43.7829C4.498 43.7829 2.79326 44.7418 1.7278 45.9138C0.129601 47.7251 -0.0834917 50.0691 0.0230547 65.3053C0.342694 100.785 2.79326 139.888 5.35037 149.796C5.8831 152.141 6.73547 155.443 7.05511 157.255C7.4813 158.959 8.12058 161.41 8.65331 162.582C9.07949 163.754 10.145 166.418 10.7842 168.442C17.4967 187.194 27.512 203.07 42.2154 218.412C56.8122 233.648 74.8186 247.286 80.359 247.286C83.4488 247.286 85.7928 244.836 88.0303 239.295C88.9892 236.951 90.3743 233.542 91.1202 231.837C91.9725 230.026 93.2511 226.936 94.21 224.912C95.0624 222.887 96.7671 218.945 98.0457 216.175C99.2177 213.405 100.283 210.848 100.283 210.528C100.283 210.315 101.455 207.545 102.84 204.455C104.225 201.365 106.676 195.398 108.274 191.35C109.979 187.194 111.684 183.465 112.216 182.932C114.134 180.695 112.749 178.99 106.996 176.433C88.1369 168.016 76.843 151.288 76.843 131.684C76.843 118.152 81.6375 106.858 91.1202 97.6953C101.242 87.9996 110.299 84.2705 123.83 84.2705C137.255 84.2705 147.27 88.1062 157.072 96.9495C164.85 103.982 169.112 112.186 171.669 125.184C174.972 141.912 163.572 163.967 146.844 173.13C144.074 174.622 141.197 175.9 140.451 175.9C139.705 175.9 138.214 176.54 137.255 177.285C135.124 178.884 135.976 183.145 140.877 193.694C142.582 197.423 143.967 200.726 143.967 201.045C143.967 201.365 144.926 203.602 145.992 206.053C147.057 208.504 149.721 214.79 151.958 220.117C154.089 225.338 157.072 232.263 158.457 235.353C159.843 238.443 161.015 241.32 161.015 241.853C161.015 242.385 161.973 243.983 163.252 245.582C166.875 250.163 171.136 249.417 181.471 242.279C198.732 230.559 215.566 213.405 226.221 196.677C231.548 188.26 233.892 183.359 239.646 169.294C241.883 163.754 245.932 146.6 247.211 137.544C248.489 127.528 250.727 51.8804 249.768 48.2578C249.341 46.2335 241.67 41.652 238.793 41.652C238.261 41.652 236.236 41.0127 234.318 40.1603C232.401 39.308 227.926 37.6032 224.41 36.3247C220.894 35.0461 217.058 33.5545 215.886 33.1283C214.714 32.7021 211.411 31.5301 208.428 30.4646C205.551 29.5057 201.928 28.2271 200.437 27.5878C194.79 25.2438 193.192 24.6045 184.455 21.6213C175.505 18.4249 167.834 15.6547 163.678 13.9499C162.506 13.4172 158.244 11.819 154.089 10.4339C150.04 8.94224 141.943 5.95894 136.296 3.93456C124.469 -0.433837 125.748 -0.327291 119.461 1.80364Z" fill="url(#paint0_linear_2315_4309)"/>
<defs>
<linearGradient id="paint0_linear_2315_4309" x1="46.7472" y1="24.3445" x2="207.366" y2="218.525" gradientUnits="userSpaceOnUse">
<stop stop-color="#2783FD"/>
<stop offset="1" stop-color="#0051CD"/>
</linearGradient>
</defs>
</svg>
